<mxfile host="app.diagrams.net" modified="2024-04-17T08:39:47.105Z" agent="Mozilla/5.0 (Macintosh; Intel Mac OS X 10_15_7) AppleWebKit/537.36 (KHTML, like Gecko) Chrome/123.0.0.0 Safari/537.36" etag="j8SKyl-n5auJED5xTd5T" version="22.1.21" type="github">
  <diagram name="第 1 页" id="bTr3gHhxMENDJdMQMo-L">
    <mxGraphModel dx="1837" dy="783" grid="1" gridSize="10" guides="1" tooltips="1" connect="1" arrows="1" fold="1" page="1" pageScale="1" pageWidth="827" pageHeight="1169" math="0" shadow="0">
      <root>
        <mxCell id="0" />
        <mxCell id="1" parent="0" />
        <mxCell id="KrZKUn2tXCHzFmY9HLOA-8" style="edgeStyle=orthogonalEdgeStyle;rounded=0;orthogonalLoop=1;jettySize=auto;html=1;entryX=0.5;entryY=0;entryDx=0;entryDy=0;" edge="1" parent="1" source="KrZKUn2tXCHzFmY9HLOA-1" target="KrZKUn2tXCHzFmY9HLOA-2">
          <mxGeometry relative="1" as="geometry" />
        </mxCell>
        <mxCell id="KrZKUn2tXCHzFmY9HLOA-1" value="开始" style="rounded=1;whiteSpace=wrap;html=1;" vertex="1" parent="1">
          <mxGeometry x="360" y="50" width="120" height="60" as="geometry" />
        </mxCell>
        <mxCell id="KrZKUn2tXCHzFmY9HLOA-17" style="edgeStyle=orthogonalEdgeStyle;rounded=0;orthogonalLoop=1;jettySize=auto;html=1;exitX=0.5;exitY=1;exitDx=0;exitDy=0;entryX=0.5;entryY=0;entryDx=0;entryDy=0;" edge="1" parent="1" source="KrZKUn2tXCHzFmY9HLOA-2" target="KrZKUn2tXCHzFmY9HLOA-5">
          <mxGeometry relative="1" as="geometry" />
        </mxCell>
        <mxCell id="KrZKUn2tXCHzFmY9HLOA-2" value="通过code执行微信登录拿到sessionKey，openid跟unionid" style="rounded=0;whiteSpace=wrap;html=1;" vertex="1" parent="1">
          <mxGeometry x="360" y="200" width="120" height="60" as="geometry" />
        </mxCell>
        <mxCell id="KrZKUn2tXCHzFmY9HLOA-14" style="edgeStyle=orthogonalEdgeStyle;rounded=0;orthogonalLoop=1;jettySize=auto;html=1;exitX=0.5;exitY=1;exitDx=0;exitDy=0;" edge="1" parent="1" source="KrZKUn2tXCHzFmY9HLOA-4">
          <mxGeometry relative="1" as="geometry">
            <mxPoint x="420" y="570" as="targetPoint" />
          </mxGeometry>
        </mxCell>
        <mxCell id="KrZKUn2tXCHzFmY9HLOA-4" value="&lt;span style=&quot;color: rgb(0, 0, 0); font-family: Helvetica; font-size: 12px; font-style: normal; font-variant-ligatures: normal; font-variant-caps: normal; font-weight: 400; letter-spacing: normal; orphans: 2; text-align: center; text-indent: 0px; text-transform: none; widows: 2; word-spacing: 0px; -webkit-text-stroke-width: 0px; background-color: rgb(251, 251, 251); text-decoration-thickness: initial; text-decoration-style: initial; text-decoration-color: initial; float: none; display: inline !important;&quot;&gt;通过sessionKey，iv跟&lt;/span&gt;encryptedData解密手机号" style="rounded=0;whiteSpace=wrap;html=1;" vertex="1" parent="1">
          <mxGeometry x="360" y="450" width="120" height="60" as="geometry" />
        </mxCell>
        <mxCell id="KrZKUn2tXCHzFmY9HLOA-12" style="edgeStyle=orthogonalEdgeStyle;rounded=0;orthogonalLoop=1;jettySize=auto;html=1;exitX=0;exitY=0.5;exitDx=0;exitDy=0;entryX=0.5;entryY=0;entryDx=0;entryDy=0;" edge="1" parent="1" source="KrZKUn2tXCHzFmY9HLOA-5" target="KrZKUn2tXCHzFmY9HLOA-11">
          <mxGeometry relative="1" as="geometry" />
        </mxCell>
        <mxCell id="KrZKUn2tXCHzFmY9HLOA-18" style="edgeStyle=orthogonalEdgeStyle;rounded=0;orthogonalLoop=1;jettySize=auto;html=1;exitX=0.5;exitY=1;exitDx=0;exitDy=0;entryX=0.5;entryY=0;entryDx=0;entryDy=0;" edge="1" parent="1" source="KrZKUn2tXCHzFmY9HLOA-5" target="KrZKUn2tXCHzFmY9HLOA-4">
          <mxGeometry relative="1" as="geometry" />
        </mxCell>
        <mxCell id="KrZKUn2tXCHzFmY9HLOA-5" value="通过openid查询账号是否存在" style="rhombus;whiteSpace=wrap;html=1;" vertex="1" parent="1">
          <mxGeometry x="350" y="340" width="140" height="70" as="geometry" />
        </mxCell>
        <mxCell id="KrZKUn2tXCHzFmY9HLOA-7" value="结束" style="rounded=1;whiteSpace=wrap;html=1;" vertex="1" parent="1">
          <mxGeometry x="360" y="720" width="120" height="60" as="geometry" />
        </mxCell>
        <mxCell id="KrZKUn2tXCHzFmY9HLOA-13" style="edgeStyle=orthogonalEdgeStyle;rounded=0;orthogonalLoop=1;jettySize=auto;html=1;exitX=0.5;exitY=1;exitDx=0;exitDy=0;entryX=0;entryY=0.5;entryDx=0;entryDy=0;" edge="1" parent="1" source="KrZKUn2tXCHzFmY9HLOA-11" target="KrZKUn2tXCHzFmY9HLOA-7">
          <mxGeometry relative="1" as="geometry" />
        </mxCell>
        <mxCell id="KrZKUn2tXCHzFmY9HLOA-11" value="执行登录逻辑，生成token" style="rounded=0;whiteSpace=wrap;html=1;" vertex="1" parent="1">
          <mxGeometry x="170" y="570" width="120" height="60" as="geometry" />
        </mxCell>
        <mxCell id="KrZKUn2tXCHzFmY9HLOA-15" value="拿到openid，unionid，手机号注册账号" style="rounded=0;whiteSpace=wrap;html=1;" vertex="1" parent="1">
          <mxGeometry x="360" y="570" width="120" height="60" as="geometry" />
        </mxCell>
        <mxCell id="KrZKUn2tXCHzFmY9HLOA-16" style="edgeStyle=orthogonalEdgeStyle;rounded=0;orthogonalLoop=1;jettySize=auto;html=1;entryX=1;entryY=0.5;entryDx=0;entryDy=0;" edge="1" parent="1" source="KrZKUn2tXCHzFmY9HLOA-15" target="KrZKUn2tXCHzFmY9HLOA-11">
          <mxGeometry relative="1" as="geometry" />
        </mxCell>
      </root>
    </mxGraphModel>
  </diagram>
</mxfile>
